<?xml version="1.0" standalone="no"?>
<!DOCTYPE svg PUBLIC "-//W3C//DTD SVG 20010904//EN"
 "http://www.w3.org/TR/2001/REC-SVG-20010904/DTD/svg10.dtd">
<svg version="1.0" xmlns="http://www.w3.org/2000/svg"
 width="500.000000pt" height="500.000000pt" viewBox="0 0 500.000000 500.000000"
 preserveAspectRatio="xMidYMid meet">

<g transform="translate(0.000000,500.000000) scale(0.100000,-0.100000)"
fill="#000000" stroke="none">
<path d="M1793 3643 c-13 -2 -23 -9 -23 -14 0 -10 169 -10 215 0 54 12 -131
26 -192 14z"/>
<path d="M2083 3623 c9 -2 25 -2 35 0 9 3 1 5 -18 5 -19 0 -27 -2 -17 -5z"/>
<path d="M2408 3613 c6 -2 18 -2 25 0 6 3 1 5 -13 5 -14 0 -19 -2 -12 -5z"/>
<path d="M2524 3610 c38 -5 81 -12 95 -15 21 -5 23 -4 14 6 -7 7 -46 13 -95
15 l-83 3 69 -9z"/>
<path d="M1760 3591 c0 -51 58 -378 71 -403 7 -12 2 -35 -16 -77 -54 -130 -83
-222 -101 -322 -12 -73 -28 -123 -51 -167 -34 -64 -41 -88 -23 -77 6 4 8 11 5
16 -4 5 -2 9 3 9 4 0 16 15 25 33 l17 32 -2 -52 c-4 -130 25 -28 37 125 10
147 48 273 134 454 26 54 44 98 39 98 -5 0 -17 -13 -26 -30 -9 -16 -20 -30
-23 -30 -11 0 -69 320 -69 383 0 15 -4 27 -10 27 -5 0 -10 -9 -10 -19z"/>
<path d="M2330 3599 c-14 -6 -42 -8 -62 -5 -31 5 -36 3 -32 -9 4 -10 -3 -18
-20 -25 -14 -5 -26 -14 -26 -19 0 -6 22 1 49 14 27 14 57 25 67 25 23 1 85 28
64 29 -8 0 -26 -5 -40 -10z"/>
<path d="M2996 3601 c-5 -8 23 -11 101 -11 65 0 113 -4 120 -11 8 -8 13 -8 17
0 4 6 6 11 4 12 -64 16 -234 23 -242 10z"/>
<path d="M2898 3593 c6 -2 18 -2 25 0 6 3 1 5 -13 5 -14 0 -19 -2 -12 -5z"/>
<path d="M2775 3570 l-40 -6 28 -12 c47 -20 77 -25 77 -13 0 6 -4 11 -10 11
-5 0 -7 7 -4 15 4 8 2 14 -2 14 -5 -1 -27 -5 -49 -9z"/>
<path d="M1938 3543 c-42 -7 -53 -28 -51 -104 2 -79 18 -139 38 -139 29 0 195
153 224 207 9 19 8 24 -8 33 -19 10 -146 12 -203 3z"/>
<path d="M2953 3530 c-16 -7 -21 -14 -16 -27 7 -19 111 -146 123 -151 10 -4
65 85 81 131 12 33 11 39 -1 47 -19 12 -158 12 -187 0z"/>
<path d="M3172 3475 c-17 -37 -14 -45 4 -12 9 16 14 31 11 33 -2 2 -9 -7 -15
-21z"/>
<path d="M3150 3415 c-7 -9 -11 -17 -9 -20 3 -2 10 5 17 15 14 24 10 26 -8 5z"/>
<path d="M2963 3386 c14 -37 81 -191 84 -196 6 -6 23 22 23 38 0 7 -4 11 -9 8
-5 -3 -25 31 -44 76 -19 46 -41 84 -48 87 -8 2 -10 -2 -6 -13z"/>
<path d="M3180 2990 c0 -5 5 -10 11 -10 5 0 7 5 4 10 -3 6 -8 10 -11 10 -2 0
-4 -4 -4 -10z"/>
<path d="M3111 2948 c1 -7 -4 -26 -12 -43 -8 -17 -13 -62 -13 -106 l0 -75 -49
-28 c-61 -34 -54 -48 7 -15 25 13 47 21 49 19 3 -3 7 -18 9 -35 3 -29 2 -30
-33 -27 -26 2 -38 -1 -42 -12 -4 -9 -2 -16 3 -16 6 0 10 4 10 9 0 6 12 6 29 1
16 -4 32 -6 34 -3 3 3 13 -7 23 -21 22 -35 16 -39 -34 -22 -57 20 -63 3 -7
-19 29 -10 45 -23 45 -34 0 -9 -16 -43 -36 -76 -28 -49 -47 -67 -101 -99 -90
-53 -144 -66 -308 -73 -210 -9 -413 20 -541 77 l-46 20 24 29 c12 15 26 27 29
25 3 -2 16 6 27 17 12 11 22 16 22 12 0 -4 7 1 15 11 8 11 15 16 15 10 0 -5 5
-2 10 6 5 8 13 15 17 15 16 1 203 100 203 108 0 5 -10 5 -22 2 -33 -10 -222
-120 -296 -172 -69 -49 -79 -49 -131 -1 -33 29 -34 31 -15 44 10 7 24 18 30
23 7 5 14 7 18 4 3 -3 11 -1 18 4 18 14 207 89 245 98 44 9 54 27 11 20 -80
-14 -434 -174 -453 -205 -7 -11 15 -7 35 5 50 33 60 32 110 -14 l49 -44 -25
-24 c-15 -13 -23 -27 -20 -31 4 -3 18 6 32 21 30 33 33 33 93 3 54 -28 191
-63 284 -74 34 -4 136 -7 227 -6 211 1 284 20 388 102 33 26 45 31 60 23 30
-16 64 -9 103 21 43 33 56 35 64 9 3 -11 13 -25 22 -33 29 -23 -11 43 -67 113
-60 74 -95 146 -105 212 -6 41 -5 46 9 41 9 -4 15 -9 12 -11 -9 -9 46 -73 62
-73 12 0 9 7 -11 28 -15 16 -40 55 -56 87 -23 47 -27 64 -20 88 5 17 13 35 17
39 5 5 34 -31 66 -81 31 -49 64 -92 72 -95 15 -6 15 -4 1 16 -31 45 -114 183
-120 201 -7 19 -39 24 -36 5z m84 -455 c17 -16 29 -36 27 -45 -5 -25 -65 -59
-100 -56 -31 2 -33 15 -7 48 6 8 17 30 25 48 7 17 15 32 19 32 4 0 20 -12 36
-27z"/>
<path d="M3248 2915 c9 -18 53 -61 206 -204 27 -25 44 -37 38 -25 -6 11 -33
38 -59 59 -26 21 -81 73 -121 114 -41 42 -69 67 -64 56z"/>
<path d="M2707 2783 c-4 -3 3 -17 15 -30 19 -21 20 -26 9 -63 -9 -30 -21 -45
-49 -60 -32 -16 -34 -19 -14 -20 14 0 36 13 53 31 l28 30 32 -30 c31 -30 60
-38 93 -25 29 11 16 23 -19 17 -40 -6 -55 3 -84 53 l-20 34 24 28 c14 16 22
32 18 36 -8 8 -78 8 -86 -1z"/>
<path d="M2158 2690 c-131 -9 -236 -27 -302 -55 -53 -22 -38 -30 21 -11 105
35 238 51 425 51 70 0 124 3 120 7 -12 12 -133 16 -264 8z"/>
<path d="M2614 2615 c11 -8 22 -12 25 -9 6 6 -19 24 -34 24 -5 -1 -1 -7 9 -15z"/>
<path d="M3616 2515 c4 -16 11 -52 15 -80 8 -49 8 -49 4 12 -1 33 -8 69 -15
80 -9 15 -10 13 -4 -12z"/>
<path d="M1577 2452 c-13 -27 -44 -83 -69 -123 -94 -156 -106 -178 -100 -183
5 -5 25 28 114 184 11 19 29 47 39 62 24 34 52 98 45 105 -3 3 -16 -17 -29
-45z"/>
<path d="M3628 2310 c-3 -8 -13 -44 -23 -80 -29 -113 -89 -215 -182 -309 -46
-46 -83 -85 -83 -88 0 -26 154 132 198 203 37 58 105 247 99 272 -3 14 -5 15
-9 2z"/>
<path d="M1375 2070 c-19 -77 -17 -191 3 -198 7 -2 12 -9 12 -17 0 -7 7 -18
14 -25 11 -8 9 0 -4 28 -31 65 -35 137 -12 207 12 33 17 64 13 68 -5 5 -16
-24 -26 -63z"/>
<path d="M3070 2106 c0 -35 150 -346 166 -346 7 0 -14 51 -46 113 -32 61 -68
140 -80 175 -13 34 -27 62 -31 62 -5 0 -9 -2 -9 -4z"/>
<path d="M1835 2039 c-78 -8 -203 -33 -212 -43 -16 -16 11 -15 88 3 122 28
208 34 312 21 157 -21 307 -92 421 -199 72 -70 92 -97 100 -141 l7 -35 -23 30
c-47 61 -101 115 -110 109 -5 -4 9 -25 32 -48 23 -22 51 -58 61 -79 l20 -37
-26 -10 c-15 -6 -28 -10 -29 -10 -2 0 -22 24 -43 53 -46 59 -94 109 -100 103
-3 -2 18 -32 46 -67 54 -66 62 -85 34 -74 -47 17 -230 35 -433 40 -284 8 -327
16 -483 93 -5 2 -7 -4 -6 -14 2 -11 -3 -29 -10 -42 -26 -49 -50 -227 -35 -266
12 -31 19 -15 21 47 2 59 18 181 30 220 6 22 14 21 119 -17 84 -30 126 -34
449 -46 167 -6 266 -14 298 -24 26 -8 50 -14 52 -15 3 0 21 -3 40 -7 46 -8 94
12 106 45 25 65 -42 168 -166 256 -173 124 -361 175 -560 154z"/>
<path d="M3282 1597 c11 -39 24 -81 29 -92 14 -31 1 51 -17 107 -25 76 -34 65
-12 -15z"/>
</g>
</svg>
